<?xml version="1.0" standalone="no"?>
<!DOCTYPE svg PUBLIC "-//W3C//DTD SVG 20010904//EN"
 "http://www.w3.org/TR/2001/REC-SVG-20010904/DTD/svg10.dtd">
<svg version="1.0" xmlns="http://www.w3.org/2000/svg"
 width="700.000000pt" height="700.000000pt" viewBox="0 0 700.000000 700.000000"
 preserveAspectRatio="xMidYMid meet">
<metadata>
Created by potrace 1.11, written by Peter Selinger 2001-2013
</metadata>
<g transform="translate(0.000000,700.000000) scale(0.100000,-0.100000)"
fill="#000000" stroke="none">
<path d="M2748 6185 c-2 -1 -54 -5 -117 -9 -62 -3 -116 -8 -120 -10 -3 -2 -28
-7 -56 -10 -118 -16 -259 -58 -365 -109 -240 -114 -306 -327 -183 -584 56
-117 103 -172 378 -446 303 -301 617 -560 938 -772 l118 -79 -98 -95 c-54 -53
-132 -125 -172 -161 -41 -36 -79 -70 -85 -75 -41 -38 -188 -154 -276 -220
-345 -256 -700 -447 -1032 -553 -37 -12 -74 -22 -82 -22 -29 0 -118 -55 -170
-104 -93 -90 -129 -170 -120 -269 10 -129 122 -249 329 -355 120 -61 334 -141
422 -157 16 -2 39 -7 53 -10 62 -12 150 -25 210 -30 57 -5 344 -5 390 -1 19 2
78 7 130 11 52 4 97 8 100 10 3 1 30 6 60 9 30 4 66 8 80 11 34 6 217 35 260
41 19 3 42 7 50 9 14 4 151 29 226 41 20 3 44 7 53 9 9 1 41 6 71 10 30 4 64
9 75 11 54 11 184 19 310 19 186 -1 247 -17 412 -107 70 -39 245 -129 388
-199 143 -71 278 -139 301 -152 34 -19 55 -22 135 -22 l94 0 -4 30 c-1 17 -10
44 -19 60 -34 67 -91 104 -390 252 -161 79 -344 173 -406 208 -258 147 -447
168 -901 104 -141 -20 -170 -24 -215 -34 -14 -2 -38 -7 -55 -10 -16 -3 -55 -9
-85 -15 -30 -5 -73 -12 -95 -15 -22 -4 -47 -8 -55 -10 -21 -6 -272 -43 -345
-51 -33 -3 -73 -8 -90 -11 -16 -2 -122 -6 -235 -8 -310 -4 -497 28 -717 125
l-68 30 50 -6 c28 -3 61 -8 75 -10 32 -5 390 -5 450 0 25 3 83 7 130 11 47 3
96 8 110 10 14 2 52 7 85 10 54 5 162 18 255 31 358 51 686 143 968 270 29 13
55 24 58 24 12 0 329 162 419 215 55 32 109 63 119 69 11 6 25 14 30 18 6 4
82 55 168 112 170 113 258 177 413 300 131 104 365 297 365 301 0 3 -54 -1
-115 -9 -125 -17 -183 -21 -305 -21 -155 1 -218 7 -387 41 -462 93 -966 322
-1443 657 -63 45 -127 90 -141 101 -14 12 -41 32 -59 46 -63 47 -285 231 -375
313 -156 141 -471 464 -513 527 -99 147 -107 279 -23 348 53 43 249 113 356
126 28 3 59 8 70 10 89 18 354 24 485 11 357 -34 531 -96 1015 -364 280 -156
818 -489 1352 -838 103 -68 191 -123 195 -123 9 0 108 145 108 158 0 9 -110
83 -450 304 -144 93 -430 275 -494 313 -18 11 -127 77 -242 146 -115 69 -231
139 -259 154 -338 191 -546 294 -706 349 -123 42 -303 81 -444 96 -90 10 -341
20 -347 15z m863 -2176 c398 -216 862 -372 1229 -411 21 -3 15 -10 -52 -60
-346 -260 -793 -507 -1163 -642 -49 -19 -97 -36 -105 -39 -19 -8 -268 -78
-295 -83 -134 -26 -177 -34 -215 -40 -25 -3 -54 -8 -65 -10 -11 -2 -39 -6 -62
-9 -46 -5 -102 -13 -148 -20 -16 -2 -61 -7 -100 -10 -38 -4 -81 -8 -95 -10
-113 -19 -556 -27 -685 -12 -146 17 -295 73 -295 111 0 26 58 57 168 92 186
58 257 86 442 176 416 203 876 541 1245 915 55 56 100 102 101 102 1 1 43 -22
95 -50z"/>
<path d="M3799 5234 c-62 -19 -131 -81 -158 -145 -57 -132 4 -288 136 -345 85
-36 208 -14 280 50 79 70 103 211 53 310 -57 112 -187 167 -311 130z"/>
<path d="M542 832 c-32 -25 -41 -89 -15 -120 27 -34 91 -40 121 -12 22 20 30
50 14 50 -5 0 -19 -12 -31 -26 -18 -20 -28 -24 -49 -19 -33 8 -42 21 -42 62 0
24 7 37 25 49 23 15 65 12 65 -6 0 -12 29 -20 35 -10 3 5 -3 18 -15 30 -25 25
-77 26 -108 2z"/>
<path d="M1093 843 c-7 -3 -13 -11 -13 -18 0 -7 -6 -16 -12 -19 -10 -5 -10 -7
0 -12 6 -3 12 -23 12 -44 0 -21 3 -45 6 -54 7 -17 54 -22 54 -6 0 6 -7 10 -15
10 -11 0 -15 12 -15 45 0 33 4 45 15 45 8 0 15 5 15 10 0 6 -6 10 -14 10 -8 0
-16 8 -18 18 -2 11 -9 17 -15 15z"/>
<path d="M1400 818 c0 -25 -3 -29 -12 -20 -32 32 -88 -1 -88 -51 0 -42 31 -65
84 -65 l46 1 0 84 c0 67 -3 83 -15 83 -10 0 -15 -10 -15 -32z m-10 -47 c15
-30 12 -49 -11 -61 -25 -14 -49 2 -49 34 0 43 41 61 60 27z"/>
<path d="M1530 767 l0 -84 49 -1 c55 -1 68 8 77 55 8 43 -26 78 -67 69 -26 -5
-29 -3 -29 19 0 16 -6 25 -15 25 -12 0 -15 -16 -15 -83z m88 11 c30 -30 -2
-93 -36 -71 -21 13 -27 50 -12 69 15 17 32 18 48 2z"/>
<path d="M1918 834 c-65 -35 -35 -154 38 -154 53 0 99 40 73 64 -8 8 -13 7
-16 -2 -16 -42 -59 -54 -88 -22 -24 27 -22 70 5 92 28 23 45 23 68 1 38 -37
59 -20 22 17 -23 23 -64 25 -102 4z"/>
<path d="M2453 833 c-4 -10 -11 -22 -17 -26 -8 -6 -7 -10 2 -14 7 -3 12 -24
12 -54 0 -44 3 -49 25 -55 32 -8 46 4 22 17 -22 13 -25 89 -2 89 8 0 15 5 15
10 0 6 -7 10 -15 10 -8 0 -15 9 -15 20 0 25 -18 26 -27 3z"/>
<path d="M2540 840 c0 -5 7 -10 15 -10 8 0 15 5 15 10 0 6 -7 10 -15 10 -8 0
-15 -4 -15 -10z"/>
<path d="M2957 832 c-33 -36 -16 -67 42 -78 28 -6 51 -28 40 -38 -18 -16 -50
-15 -68 3 -24 24 -41 27 -41 7 0 -36 76 -57 115 -32 46 30 23 74 -48 90 -20 5
-27 12 -25 24 4 23 32 27 51 7 20 -19 37 -19 37 0 0 34 -76 47 -103 17z"/>
<path d="M3110 829 c0 -9 -6 -20 -12 -22 -10 -4 -10 -7 -1 -14 6 -5 13 -31 15
-58 3 -46 5 -50 31 -53 15 -2 27 1 27 7 0 6 -7 11 -15 11 -11 0 -15 12 -15 45
0 33 4 45 15 45 8 0 15 5 15 10 0 6 -7 10 -15 10 -8 0 -15 8 -15 18 0 10 -7
19 -15 19 -8 0 -15 -8 -15 -18z"/>
<path d="M3350 765 c0 -69 3 -85 15 -85 12 0 15 16 15 85 0 69 -3 85 -15 85
-12 0 -15 -16 -15 -85z"/>
<path d="M3410 765 c0 -69 3 -85 15 -85 12 0 15 16 15 85 0 69 -3 85 -15 85
-12 0 -15 -16 -15 -85z"/>
<path d="M690 744 c0 -50 3 -64 15 -64 11 0 15 12 15 44 0 37 5 48 27 64 l26
19 -41 0 -42 0 0 -63z"/>
<path d="M790 790 c-56 -56 21 -143 86 -96 26 20 10 32 -21 16 -20 -11 -27
-11 -40 0 -23 19 -18 30 13 29 59 -3 72 0 65 19 -19 52 -67 68 -103 32z m68
-17 c2 -9 -7 -13 -28 -13 -28 0 -31 2 -20 15 15 18 41 16 48 -2z"/>
<path d="M929 790 c-23 -19 -23 -19 -3 -20 11 0 25 5 31 11 13 13 43 5 43 -10
0 -5 -18 -12 -40 -16 -27 -4 -41 -13 -45 -26 -11 -33 11 -48 69 -46 l53 1 -5
51 c-2 27 -9 56 -14 63 -15 18 -63 15 -89 -8z m71 -64 c0 -18 -39 -31 -52 -18
-15 15 0 32 28 32 14 0 24 -6 24 -14z"/>
<path d="M1180 788 c-25 -28 -26 -62 0 -88 24 -24 63 -26 85 -4 22 22 11 30
-20 14 -20 -11 -27 -11 -40 0 -24 20 -18 29 23 28 58 -1 62 1 55 20 -19 53
-68 68 -103 30z m68 -15 c2 -9 -7 -13 -28 -13 -28 0 -31 2 -20 15 15 18 41 16
48 -2z"/>
<path d="M1675 793 c4 -10 15 -42 25 -70 19 -52 19 -53 -1 -63 -24 -14 -25
-30 0 -30 25 0 35 14 65 94 30 79 31 86 12 86 -7 0 -19 -20 -27 -47 l-13 -47
-19 47 c-11 26 -26 47 -34 47 -10 0 -13 -6 -8 -17z"/>
<path d="M2060 744 c0 -50 3 -64 15 -64 11 0 15 12 15 50 0 45 3 50 25 56 38
9 30 21 -15 21 l-40 0 0 -63z"/>
<path d="M2160 790 c-56 -56 21 -143 86 -96 26 20 10 32 -21 16 -20 -11 -27
-11 -40 0 -26 22 -17 30 35 30 43 0 49 2 43 18 -19 52 -67 68 -103 32z m68
-17 c2 -9 -7 -13 -27 -13 -31 0 -42 14 -18 23 19 8 40 3 45 -10z"/>
<path d="M2299 790 c-23 -19 -23 -19 -3 -20 11 0 25 5 31 11 13 13 43 6 43 -9
0 -6 -20 -15 -45 -21 -33 -8 -45 -16 -45 -30 0 -29 20 -39 76 -38 l51 1 -5 50
c-6 75 -52 99 -103 56z m59 -81 c-17 -11 -40 -7 -45 8 -2 6 9 15 24 20 22 8
29 7 31 -5 2 -8 -2 -19 -10 -23z"/>
<path d="M2540 745 c0 -51 3 -65 15 -65 12 0 15 14 15 65 0 51 -3 65 -15 65
-12 0 -15 -14 -15 -65z"/>
<path d="M2604 748 c32 -84 51 -84 83 0 21 57 22 63 6 60 -10 -2 -22 -18 -28
-40 -15 -55 -23 -56 -37 -4 -9 32 -17 46 -30 46 -16 0 -15 -5 6 -62z"/>
<path d="M2740 790 c-11 -11 -20 -31 -20 -45 0 -53 69 -85 105 -49 22 22 11
30 -20 14 -20 -11 -27 -11 -40 0 -26 22 -17 30 33 28 42 -2 47 -1 44 17 -9 52
-65 72 -102 35z m68 -17 c2 -9 -7 -13 -27 -13 -31 0 -42 14 -18 23 19 8 40 3
45 -10z"/>
<path d="M3218 803 c-24 -6 -32 -33 -10 -33 10 0 23 5 29 11 13 13 43 5 43
-11 0 -5 -18 -13 -40 -16 -27 -4 -41 -13 -46 -26 -10 -32 12 -47 70 -45 l53 1
-5 51 c-2 27 -9 56 -14 63 -10 12 -46 14 -80 5z m62 -77 c0 -18 -39 -31 -52
-18 -15 15 0 32 28 32 14 0 24 -6 24 -14z"/>
<path d="M533 573 c-4 -10 -11 -22 -17 -26 -8 -6 -7 -10 2 -14 7 -3 12 -25 12
-59 0 -41 4 -54 15 -54 11 0 15 13 15 54 0 34 5 56 13 59 9 4 8 8 -3 16 -12 9
-12 11 3 17 9 3 14 10 11 15 -9 16 -44 10 -51 -8z"/>
<path d="M1120 505 c0 -69 3 -85 15 -85 12 0 15 14 15 63 l0 62 38 -62 c22
-38 44 -63 55 -63 15 0 17 11 17 85 0 69 -3 85 -15 85 -12 0 -15 -14 -15 -62
l0 -61 -40 61 c-56 88 -70 83 -70 -23z"/>
<path d="M1800 505 c0 -69 3 -85 15 -85 10 0 15 11 15 35 0 35 0 35 45 35 50
0 72 23 59 63 -10 31 -22 37 -81 37 l-53 0 0 -85z m88 59 c17 -3 22 -10 20
-27 -2 -18 -11 -23 -40 -25 -36 -3 -38 -2 -38 26 0 30 12 35 58 26z"/>
<path d="M2200 580 c0 -5 7 -10 15 -10 8 0 15 5 15 10 0 6 -7 10 -15 10 -8 0
-15 -4 -15 -10z"/>
<path d="M2563 583 c-7 -3 -13 -11 -13 -18 0 -7 -6 -16 -12 -18 -10 -4 -10 -7
-1 -14 6 -5 13 -31 15 -58 3 -46 5 -50 31 -53 29 -4 37 12 12 22 -10 3 -15 19
-15 46 0 29 4 40 15 40 8 0 15 5 15 10 0 6 -6 10 -14 10 -8 0 -16 8 -18 18 -2
11 -9 17 -15 15z"/>
<path d="M600 484 c0 -49 3 -64 14 -64 11 0 16 14 18 47 2 38 8 50 26 59 28
14 19 21 -25 22 l-33 1 0 -65z"/>
<path d="M700 530 c-11 -11 -20 -31 -20 -45 0 -14 9 -34 20 -45 11 -11 31 -20
45 -20 14 0 34 9 45 20 11 11 20 31 20 45 0 14 -9 34 -20 45 -11 11 -31 20
-45 20 -14 0 -34 -9 -45 -20z m68 -12 c32 -32 1 -89 -37 -68 -26 13 -28 55 -3
69 22 13 26 13 40 -1z"/>
<path d="M830 485 c0 -51 3 -65 15 -65 11 0 15 12 15 49 0 35 4 51 16 55 26
10 34 -3 34 -55 0 -37 4 -49 15 -49 11 0 15 12 15 49 0 35 4 51 16 55 26 10
34 -3 34 -55 0 -37 4 -49 15 -49 19 0 21 100 3 118 -14 14 -54 16 -63 2 -4 -6
-13 -5 -25 3 -16 9 -24 9 -40 -1 -12 -7 -20 -8 -20 -2 0 5 -7 10 -15 10 -12 0
-15 -14 -15 -65z"/>
<path d="M1310 530 c-11 -11 -20 -31 -20 -45 0 -14 9 -34 20 -45 11 -11 31
-20 45 -20 14 0 34 9 45 20 11 11 20 31 20 45 0 14 -9 34 -20 45 -11 11 -31
20 -45 20 -14 0 -34 -9 -45 -20z m68 -12 c30 -30 -2 -93 -36 -71 -23 14 -26
47 -7 67 20 19 27 20 43 4z"/>
<path d="M1440 496 c0 -63 10 -74 68 -73 l42 0 0 63 c0 50 -3 64 -15 64 -12 0
-15 -11 -13 -46 1 -30 -4 -49 -13 -55 -25 -16 -34 -4 -37 49 -2 37 -7 52 -18
52 -10 0 -14 -14 -14 -54z"/>
<path d="M1580 485 c0 -51 3 -65 15 -65 11 0 15 12 15 49 0 35 4 51 16 55 26
10 34 -3 34 -55 0 -38 4 -49 15 -49 13 0 15 11 13 56 -3 66 -23 88 -58 66 -12
-7 -20 -8 -20 -2 0 5 -7 10 -15 10 -12 0 -15 -14 -15 -65z"/>
<path d="M1960 484 c0 -49 3 -64 14 -64 11 0 16 14 18 47 2 39 7 50 28 60 14
7 23 13 20 14 -3 1 -22 3 -42 4 l-38 4 0 -65z"/>
<path d="M2070 537 c-54 -27 -27 -117 35 -117 32 0 65 33 65 65 0 29 -32 65
-57 65 -10 0 -29 -6 -43 -13z m58 -19 c16 -16 15 -53 -2 -67 -23 -19 -56 4
-56 39 0 26 6 31 41 39 3 0 10 -4 17 -11z"/>
<path d="M2200 477 c0 -43 -5 -78 -12 -85 -16 -16 -1 -29 20 -16 24 16 31 174
7 174 -12 0 -15 -14 -15 -73z"/>
<path d="M2270 530 c-56 -56 21 -143 86 -96 26 20 10 32 -21 16 -20 -11 -27
-11 -40 0 -25 21 -17 29 27 27 34 -2 43 2 46 16 5 25 -26 57 -55 57 -12 0 -32
-9 -43 -20z m68 -17 c2 -9 -7 -13 -27 -13 -31 0 -42 14 -18 23 19 8 40 3 45
-10z"/>
<path d="M2410 530 c-39 -39 -11 -110 43 -110 22 0 57 27 57 43 0 13 -23 7
-35 -9 -18 -26 -57 -1 -53 33 4 34 35 54 51 33 16 -20 37 -23 37 -5 0 35 -69
46 -100 15z"/>
</g>
</svg>
